<svg width="16" height="16" viewBox="0 0 16 16" fill="none" xmlns="http://www.w3.org/2000/svg">
<path d="M7 8C7.79565 8 8.55871 7.68393 9.12132 7.12132C9.68393 6.55871 10 5.79565 10 5C10 4.20435 9.68393 3.44129 9.12132 2.87868C8.55871 2.31607 7.79565 2 7 2C6.20435 2 5.44129 2.31607 4.87868 2.87868C4.31607 3.44129 4 4.20435 4 5C4 5.79565 4.31607 6.55871 4.87868 7.12132C5.44129 7.68393 6.20435 8 7 8ZM9 5C9 5.53043 8.78929 6.03914 8.41421 6.41421C8.03914 6.78929 7.53043 7 7 7C6.46957 7 5.96086 6.78929 5.58579 6.41421C5.21071 6.03914 5 5.53043 5 5C5 4.46957 5.21071 3.96086 5.58579 3.58579C5.96086 3.21071 6.46957 3 7 3C7.53043 3 8.03914 3.21071 8.41421 3.58579C8.78929 3.96086 9 4.46957 9 5ZM13 13C13 14 12 14 12 14H2C2 14 1 14 1 13C1 12 2 9 7 9C12 9 13 12 13 13ZM12 12.996C11.999 12.75 11.846 12.01 11.168 11.332C10.516 10.68 9.289 10 7 10C4.71 10 3.484 10.68 2.832 11.332C2.154 12.01 2.002 12.75 2 12.996H12Z" fill="black"/>
</svg>
