<svg width="24" height="24" viewBox="0 0 24 24" fill="none" xmlns="http://www.w3.org/2000/svg">
<path d="M21.743 12.3185L12 1.99967C11.621 1.57817 11.879 1.57812 11.5 1.99963L2.25698 12.3185C2.12767 12.462 2.04277 12.6398 2.01255 12.8305C1.98232 13.0212 2.00807 13.2165 2.08668 13.3929C2.16529 13.5693 2.29339 13.7191 2.45548 13.8243C2.61757 13.9295 2.8067 13.9855 2.99998 13.9855L4 12.9867C4 12.9867 5.5 20.2129 5.5 20.4778C5.5 20.7427 5.81246 21.2893 6 21.4766C6.18754 21.664 7.23478 21.6835 7.5 21.6835H16C16.2652 21.6835 16.9284 21.6835 17.5 21.4766C17.9105 21.3281 18.5 20.7427 18.5 20.4778L19.8165 12.8306L21 13.9855C21.1936 13.9863 21.3834 13.9309 21.546 13.8258C21.7087 13.7208 21.8372 13.5708 21.916 13.3941C21.9947 13.2174 22.0203 13.0216 21.9896 12.8306C21.9589 12.6396 21.8732 12.4617 21.743 12.3185ZM12 15.9831C11.2043 15.9831 10.4413 15.6675 9.87866 15.1055C9.31605 14.5436 8.99998 13.7814 8.99998 12.9867C8.99998 12.192 9.31605 11.4298 9.87866 10.8679C10.4413 10.3059 11.2043 9.99022 12 9.99022C12.7956 9.99022 13.5587 10.3059 14.1213 10.8679C14.6839 11.4298 15 12.192 15 12.9867C15 13.7814 14.6839 14.5436 14.1213 15.1055C13.5587 15.6675 12.7956 15.9831 12 15.9831Z" fill="black"/>
</svg>
