<svg width="24" height="24" viewBox="0 0 24 24" fill="none" xmlns="http://www.w3.org/2000/svg">
<path d="M4 12.9867L4.48956 12.885L4.30146 11.9789L3.64665 12.6329L2.8248 13.4538C2.79088 13.4411 2.75829 13.4247 2.72764 13.4048C2.64658 13.3523 2.58261 13.2774 2.54337 13.1894C2.50414 13.1013 2.49131 13.0039 2.50638 12.9088C2.52146 12.8137 2.56382 12.7249 2.62842 12.6532L2.62942 12.6521L11.7531 2.46647L21.3757 12.6578C21.4391 12.7287 21.4809 12.8162 21.4959 12.91C21.5112 13.0051 21.4985 13.1025 21.4593 13.1905C21.42 13.2786 21.356 13.3534 21.2748 13.4058C21.2428 13.4264 21.2088 13.4432 21.1733 13.456L20.1657 12.4727L19.4851 11.8086L19.3237 12.7458L18.0072 20.393L18.0029 20.4182C17.9985 20.4262 17.9921 20.4372 17.9828 20.4514C17.9451 20.5091 17.8831 20.5849 17.801 20.6667C17.6271 20.84 17.4379 20.9674 17.3298 21.0065C16.8514 21.1796 16.2719 21.1835 16 21.1835H7.5C7.37479 21.1835 7.06296 21.1788 6.76515 21.1523C6.61499 21.1389 6.48202 21.1212 6.38313 21.0996C6.35601 21.0936 6.33484 21.0881 6.31895 21.0834C6.26924 21.0213 6.19381 20.9098 6.12224 20.7737C6.07957 20.6925 6.04552 20.6161 6.02332 20.5531C6.0036 20.4971 6.00046 20.472 6.00003 20.472C5.99991 20.4721 6 20.474 6 20.4778C6 20.4129 5.98562 20.3247 5.97736 20.274L5.97666 20.2697C5.96485 20.1972 5.94803 20.1021 5.92729 19.9894C5.88571 19.7634 5.82665 19.457 5.75622 19.099C5.61526 18.3826 5.42748 17.4532 5.23993 16.533C5.05232 15.6127 4.86473 14.7007 4.72406 14.0189C4.65372 13.6779 4.59511 13.3945 4.55407 13.1963L4.50643 12.9664L4.49388 12.9058L4.49066 12.8903L4.48984 12.8864L4.48963 12.8854L4.48958 12.8851L4 12.9867ZM6.28329 21.0709C6.28336 21.0709 6.2849 21.0715 6.28766 21.0729C6.2846 21.0717 6.28322 21.071 6.28329 21.0709ZM18.0111 20.4014C18.0111 20.4014 18.0109 20.4021 18.0102 20.4036C18.0108 20.4021 18.0111 20.4014 18.0111 20.4014ZM9.52532 15.4593C10.1817 16.1149 11.0719 16.4831 12 16.4831C12.928 16.4831 13.8182 16.1149 14.4746 15.4593C15.1311 14.8036 15.5 13.9142 15.5 12.9867C15.5 12.0592 15.1311 11.1698 14.4746 10.5141C13.8182 9.85845 12.928 9.49022 12 9.49022C11.0719 9.49022 10.1817 9.85845 9.52532 10.5141C8.86887 11.1698 8.49998 12.0592 8.49998 12.9867C8.49998 13.9142 8.86887 14.8036 9.52532 15.4593Z" stroke="black"/>
</svg>
