<svg width="24" height="24" viewBox="0 0 24 24" fill="none" xmlns="http://www.w3.org/2000/svg">
<path d="M22 2C22 2 14.36 1.63 8.34 9.88C3.72 16.21 2 22 2 22L3.94 21C5.38 18.5 6.13 17.47 7.54 16C10.07 16.74 12.71 16.65 15 14C13 13.44 11.4 13.57 9.04 13.81C11.69 12 13.5 11.6 16 12L17 10C15.2 9.66 14 9.63 12.22 10.04C14.19 8.65 15.56 7.87 18 8L19.21 6.07C17.65 5.96 16.71 6.13 14.92 6.57C16.53 5.11 18 4.45 20.14 4.32C20.14 4.32 21.19 2.43 22 2V2Z" fill="white"/>
<path d="M4.76562 4.1875H5.23438C5.27604 4.1875 5.29688 4.20833 5.29688 4.25V9.75C5.29688 9.79167 5.27604 9.8125 5.23438 9.8125H4.76562C4.72396 9.8125 4.70312 9.79167 4.70312 9.75V4.25C4.70312 4.20833 4.72396 4.1875 4.76562 4.1875Z" fill="white"/>
<path d="M2.375 6.70312H7.625C7.66667 6.70312 7.6875 6.72396 7.6875 6.76562V7.23438C7.6875 7.27604 7.66667 7.29688 7.625 7.29688H2.375C2.33333 7.29688 2.3125 7.27604 2.3125 7.23438V6.76562C2.3125 6.72396 2.33333 6.70312 2.375 6.70312Z" fill="white"/>
</svg>
