<svg width="18" height="20" viewBox="0 0 18 20" fill="none" xmlns="http://www.w3.org/2000/svg">
<path d="M16.2 7.373V14.5C16.2 15.163 15.963 15.7989 15.541 16.2678C15.1191 16.7366 14.5468 17 13.95 17H4.05005C3.45331 17 2.88102 16.7366 2.45906 16.2678C2.0371 15.7989 1.80005 15.163 1.80005 14.5V7.373L8.77145 11.931C8.84071 11.9764 8.91964 12.0003 9.00005 12.0003C9.08045 12.0003 9.15939 11.9764 9.22865 11.931L16.2 7.373ZM13.95 4C14.5037 3.9999 15.0379 4.22661 15.4505 4.63674C15.8632 5.04687 16.1252 5.61164 16.1865 6.223L9.00005 10.92L1.81355 6.223C1.87489 5.61164 2.13694 5.04687 2.54956 4.63674C2.96219 4.22661 3.49642 3.9999 4.05005 4H13.95Z" fill="black"/>
</svg>
