<svg width="18" height="20" viewBox="0 0 18 20" fill="none" xmlns="http://www.w3.org/2000/svg">
<path d="M13.95 4C14.5468 4 15.1191 4.26339 15.541 4.73223C15.963 5.20107 16.2 5.83696 16.2 6.5V14.5C16.2 15.163 15.963 15.7989 15.541 16.2678C15.1191 16.7366 14.5468 17 13.95 17H4.05005C3.45331 17 2.88102 16.7366 2.45906 16.2678C2.0371 15.7989 1.80005 15.163 1.80005 14.5V6.5C1.80005 5.83696 2.0371 5.20107 2.45906 4.73223C2.88102 4.26339 3.45331 4 4.05005 4H13.95ZM15.3 7.961L9.22865 11.931C9.17125 11.9684 9.10709 11.9913 9.04079 11.9978C8.97449 12.0044 8.90771 11.9946 8.84525 11.969L8.77145 11.931L2.70005 7.963V14.5C2.70005 14.8978 2.84228 15.2794 3.09545 15.5607C3.34863 15.842 3.69201 16 4.05005 16H13.95C14.3081 16 14.6515 15.842 14.9046 15.5607C15.1578 15.2794 15.3 14.8978 15.3 14.5V7.961ZM13.95 5H4.05005C3.69201 5 3.34863 5.15804 3.09545 5.43934C2.84228 5.72064 2.70005 6.10218 2.70005 6.5V6.802L9.00005 10.92L15.3 6.8V6.5C15.3 6.10218 15.1578 5.72064 14.9046 5.43934C14.6515 5.15804 14.3081 5 13.95 5V5Z" fill="black"/>
</svg>
